<?xml version="1.0" standalone="no"?><svg xmlns="http://www.w3.org/2000/svg" viewBox="0 0 1440 320"><path fill="#fff" fill-opacity="1" d="M0,256L16,224C32,192,64,128,96,112C128,96,160,128,192,154.7C224,181,256,203,288,192C320,181,352,139,384,101.3C416,64,448,32,480,37.3C512,43,544,85,576,106.7C608,128,640,128,672,138.7C704,149,736,171,768,181.3C800,192,832,192,864,181.3C896,171,928,149,960,144C992,139,1024,149,1056,170.7C1088,192,1120,224,1152,240C1184,256,1216,256,1248,245.3C1280,235,1312,213,1344,197.3C1376,181,1408,171,1424,165.3L1440,160L1440,320L1424,320C1408,320,1376,320,1344,320C1312,320,1280,320,1248,320C1216,320,1184,320,1152,320C1120,320,1088,320,1056,320C1024,320,992,320,960,320C928,320,896,320,864,320C832,320,800,320,768,320C736,320,704,320,672,320C640,320,608,320,576,320C544,320,512,320,480,320C448,320,416,320,384,320C352,320,320,320,288,320C256,320,224,320,192,320C160,320,128,320,96,320C64,320,32,320,16,320L0,320Z"></path></svg>